PathFileType	4	(X/Y/Z)	 s07c0203.trc
DataRate	CameraRate	NumFrames	NumMarkers	Units	OrigDataRate	OrigDataStartFrame	OrigNumFrames
200	200	4	48	mm	200	1751	2000
Frame#	Time	racr			lacr			c7			jug			rlel			rdr			llel			ldr			s2			lic			ric			lasi			rasi			rpsi			lpsi			rgt			lgt			rth1			rth2			rth3			rth4			rlfc			rmfc			rsh1			rsh2			rsh3			rsh4			rlmal			rcal			rtoe			rmt5			lth1			lth2			lth4			lth3			llfc			lmfc			lsh1			lsh2			lsh3			lsh4			llmal			lcal			ltoe			lmt5			SBIKE			LBIKE			RBIKE			
		X1	Y1	Z1	X2	Y2	Z2	X3	Y3	Z3	X4	Y4	Z4	X5	Y5	Z5	X6	Y6	Z6	X7	Y7	Z7	X8	Y8	Z8	X9	Y9	Z9	X10	Y10	Z10	X11	Y11	Z11	X12	Y12	Z12	X13	Y13	Z13	X14	Y14	Z14	X15	Y15	Z15	X16	Y16	Z16	X17	Y17	Z17	X18	Y18	Z18	X19	Y19	Z19	X20	Y20	Z20	X21	Y21	Z21	X22	Y22	Z22	X23	Y23	Z23	X24	Y24	Z24	X25	Y25	Z25	X26	Y26	Z26	X27	Y27	Z27	X28	Y28	Z28	X29	Y29	Z29	X30	Y30	Z30	X31	Y31	Z31	X32	Y32	Z32	X33	Y33	Z33	X34	Y34	Z34	X35	Y35	Z35	X36	Y36	Z36	X37	Y37	Z37	X38	Y38	Z38	X39	Y39	Z39	X40	Y40	Z40	X41	Y41	Z41	X42	Y42	Z42	X43	Y43	Z43	X44	Y44	Z44	X45	Y45	Z45	X46	Y46	Z46	X47	Y47	Z47	X48	Y48	Z48	
1751	8.7550	418.976446	1470.343919	-90.922424	391.386541	1465.962053	-360.204509	361.847935	1508.479615	-225.053703	340.270312	1365.179688	-223.566320	506.054778	1159.016419	48.275109	688.865438	939.276763	-46.882628	489.107023	1156.363463	-458.056649	710.939250	948.971985	-415.450143	-168.339382	1191.538994	-231.832874	-13.621485	1265.544751	-365.045846	-5.915329	1236.984800	-74.377357	26.979457	1191.587893	-343.539005	12.109537	1189.294995	-91.465177	-146.155574	1229.372629	-175.885993	-132.304411	1245.071052	-283.348433	-58.573384	1106.955103	-37.326331	-48.867809	1102.652817	-401.677611	89.958609	1046.871946	-28.741025	175.501587	1027.233350	-34.946369	241.096844	972.800435	-28.705778	189.965169	1056.454367	-52.497066	345.962812	883.025476	-63.314158	344.738552	873.200526	-169.115792	252.316946	778.920852	-45.926038	208.750451	704.544636	-66.285068	133.271608	659.898096	-67.667667	222.954387	696.099539	-103.977325	32.840636	571.039179	-74.330772	-39.269670	585.104139	-107.321737	156.849774	370.971242	-121.399696	77.434122	400.346172	-50.593159	25.697567	999.665870	-409.050982	99.712921	951.346048	-408.378344	126.359161	975.075359	-400.084781	139.954562	872.123318	-401.125767	249.982380	735.891730	-366.671416	237.762930	712.069925	-276.220298	226.983364	591.260772	-396.981326	237.735823	507.697683	-380.062834	207.434936	422.989748	-390.715897	237.684878	508.984280	-337.577585	182.150511	289.090185	-393.329701	117.376480	241.053775	-362.593108	404.488980	259.184738	-351.025214	304.118590	217.125877	-375.829751	-258.473952	964.256361	-232.061275	-75.700337	83.281968	-437.227077	-82.256032	79.400940	-39.723703	
1752	8.7600	418.802249	1470.382817	-89.545082	391.594041	1465.829451	-359.178276	361.789701	1508.237404	-223.938814	340.638350	1364.970117	-222.594521	505.529131	1158.558056	49.341472	688.532338	938.964774	-45.954425	489.329697	1156.095790	-457.050600	710.476524	948.196296	-414.784569	-167.393527	1190.286266	-232.383440	-12.100116	1263.629481	-365.697541	-5.724405	1235.818354	-74.882806	28.379270	1189.476594	-343.746682	12.652779	1188.573180	-91.580512	-146.269414	1228.806145	-176.129042	-131.178565	1243.596237	-284.083828	-57.535639	1106.557828	-37.172123	-47.821460	1100.371460	-401.645346	91.889534	1049.208022	-28.119708	177.865864	1031.803101	-34.550471	244.821321	978.939413	-28.889792	191.592558	1061.386633	-52.212536	351.525566	891.829961	-63.907594	350.123313	882.900991	-170.092016	258.872026	787.492675	-46.388469	215.308965	713.058041	-66.700557	139.823824	668.341718	-67.930857	229.442754	704.790270	-104.460500	39.575852	579.205362	-74.402923	-32.546338	593.349162	-107.264179	163.341131	379.080547	-121.358269	84.202556	408.393839	-50.604710	24.496609	996.005476	-409.553338	97.384713	945.982403	-408.899441	124.820600	969.253550	-400.822527	135.731695	865.749845	-401.771918	243.423655	728.182705	-366.909162	230.223858	704.782159	-276.598372	220.410498	583.803655	-397.192504	231.287695	500.333675	-380.210331	201.183797	415.533908	-390.900227	231.040417	501.710309	-337.664914	176.012270	281.454857	-393.428894	111.171637	233.849532	-362.591506	400.631934	252.485006	-353.715576	325.343095	217.237367	-419.611150	-258.536318	964.218404	-232.096700	-75.708378	83.272077	-437.238700	-82.243047	79.375584	-39.715686	
1753	8.7650	418.724980	1470.478009	-88.098273	391.873448	1465.704730	-358.267741	361.878446	1508.092600	-222.957549	340.954519	1364.807008	-221.699292	505.036400	1158.053193	50.287111	688.248845	938.741564	-44.883467	489.608256	1155.795057	-456.134717	710.065067	947.415957	-414.063171	-166.218396	1189.151690	-233.124656	-10.516016	1261.752003	-366.330890	-5.490777	1235.021906	-75.168823	29.847987	1187.440538	-343.890665	13.238563	1187.957660	-91.701924	-145.388629	1227.537602	-176.960618	-129.970462	1242.388900	-284.944698	-56.299048	1106.330879	-37.020293	-46.647153	1098.305166	-401.626866	93.805209	1051.553525	-27.655064	180.098710	1036.239656	-34.445332	248.368096	985.002290	-29.239992	193.083780	1066.291456	-51.938979	357.045566	900.680108	-64.769492	355.305424	892.029789	-171.140925	265.355007	795.762733	-46.990848	221.944057	721.342650	-67.276259	146.555742	676.395901	-68.268842	235.880924	713.265856	-105.152615	46.385702	586.975812	-74.536999	-26.087792	600.952284	-107.227731	170.331293	387.106075	-121.453006	91.129842	416.398076	-50.578731	23.410651	992.626859	-410.074143	95.165887	940.927286	-409.491325	123.121704	963.645952	-401.062086	131.599313	859.895764	-402.706468	237.017592	721.067810	-367.153959	223.061463	697.768022	-277.060061	213.780389	577.107791	-397.548706	224.779506	493.607693	-380.499549	194.803641	408.818163	-391.132039	224.235678	495.145180	-337.678132	169.521517	274.772800	-393.845472	104.614670	227.526476	-362.703218	394.250383	243.964776	-353.726243	318.738872	209.420867	-419.706502	-258.569615	964.191614	-232.155099	-75.700263	83.255028	-437.243117	-82.261586	79.379544	-39.730648	
1754	8.7700	418.649974	1470.638626	-86.658239	392.274179	1465.584229	-357.374414	362.115558	1507.924705	-221.914145	341.482470	1364.771508	-220.699755	504.486899	1157.560859	51.209607	688.040211	938.556545	-43.725951	489.957801	1155.470840	-455.202579	709.691503	946.613573	-413.243302	-165.082685	1188.342031	-233.946141	-8.835339	1260.234181	-366.861413	-5.303291	1234.200167	-75.440420	31.357722	1185.570276	-343.980115	13.863591	1187.645210	-91.795782	-144.166165	1226.297211	-178.050562	-128.782928	1241.282686	-285.672512	-55.056507	1106.222952	-36.796010	-45.491956	1096.415604	-401.572035	95.568216	1053.905585	-27.278601	182.189025	1040.695063	-34.430138	251.663281	990.934334	-29.785602	194.435872	1071.106495	-51.746633	362.689307	909.472070	-65.574542	360.176029	901.120078	-172.113222	271.642248	803.966097	-47.768272	228.587919	729.362421	-67.960751	153.249916	683.933668	-68.878662	242.435408	721.636375	-105.699242	53.244569	594.263235	-74.709897	-19.786623	607.971031	-107.033340	177.670765	394.937025	-122.068926	98.563909	424.173705	-50.652137	22.436961	989.729549	-410.708897	93.084200	936.432172	-410.083929	121.404168	958.569390	-401.152544	127.683332	854.613600	-403.757383	230.833046	714.668123	-367.415435	216.252796	691.328851	-277.596392	207.105841	571.103479	-397.986715	218.239053	487.642850	-380.927653	188.223122	402.846956	-391.555006	218.447876	489.167567	-338.090184	162.851790	266.872330	-391.833112	97.783364	221.975327	-362.830939	387.500593	235.863449	-353.860018	311.723978	201.835615	-419.747873	-258.569492	964.187436	-232.163138	-75.705527	83.242638	-437.236248	-82.238215	79.364822	-39.714479	
